<svg width="133" height="360" viewBox="0 0 133 360" fill="none" xmlns="http://www.w3.org/2000/svg">
<g clip-path="url(#clip0_2_5)">
<g clip-path="url(#clip1_2_5)">
<path d="M117.981 164.707L117.934 164.757C117.934 164.757 117.962 164.697 117.981 164.707ZM80.6294 176.417L83.9716 179.857L80.6666 183.487C80.136 183.327 79.4005 182.887 78.9443 182.597C77.6316 181.747 74.941 180.367 73.5073 180.007L74.4197 179.587C74.7921 179.437 75.0062 179.357 75.3786 179.207C76.0117 178.957 76.5516 178.687 77.194 178.347C77.855 177.987 78.3019 177.687 78.8884 177.357C79.4656 177.037 80.0615 176.747 80.6387 176.427L80.6294 176.417ZM24.8258 128.636L18.4951 129.016C16.7262 129.276 15.9628 129.056 17.0148 133.136C17.2197 133.946 17.4803 134.806 17.7317 135.646C18.5696 138.486 17.3686 139.186 20.6457 138.816C23.6435 138.476 25.701 138.356 28.3729 139.826C28.885 140.106 29.3784 140.416 29.816 140.766C30.0766 140.976 30.2256 141.106 30.4676 141.316C31.6314 142.336 30.8307 141.576 31.6314 142.566C31.8921 142.886 31.9107 142.846 32.162 143.246C35.6812 148.816 33.2606 156.577 28.7825 160.357C23.8297 164.537 15.5904 163.007 10.3024 160.177L6.70877 157.797C3.08722 154.917 1.6535 152.427 -0.255027 148.416C-0.506395 147.886 -0.888108 147.506 -0.888108 146.906L-0.888107 128.486C0.554927 128.486 3.36651 127.766 4.5768 127.336C10.4979 125.256 15.5997 122.146 19.8544 117.206C22.3401 114.326 24.3231 111.016 25.8406 107.406C26.3061 106.306 27.3395 103.306 27.4419 101.945C28.9129 102.785 28.8012 102.415 30.7656 103.996C38.0366 109.826 38.1949 125.966 38.1949 135.356C37.1615 134.606 36.4167 132.996 32.7206 130.776C30.7842 129.616 27.7771 128.636 24.8258 128.636ZM38.1949 224.508C38.1949 232.008 37.8504 239.138 36.4539 245.119C35.7743 248.039 34.8247 250.979 33.4003 253.079C32.6648 254.179 31.7803 255.069 30.7842 255.889C29.9835 256.549 28.5498 257.639 27.4419 257.919C26.5761 253.939 25.3472 250.909 23.5504 247.899C22.4611 246.069 19.8543 242.388 18.3555 241.148C17.9644 240.818 17.8062 240.588 17.4617 240.238C13.2257 235.838 5.12608 231.918 -0.888112 231.378L-0.888111 213.418C-0.888111 212.058 -0.413301 211.788 0.0335744 210.828C1.41144 207.888 3.53409 204.628 5.93605 202.648C7.33253 201.498 8.36592 200.808 10.0603 199.888C15.8418 196.777 24.6303 195.187 29.909 200.628L30.058 200.788C30.058 200.788 30.1046 200.848 30.1232 200.868C34.5361 205.968 35.4671 214.468 30.449 218.668C29.397 219.548 28.2333 220.258 26.8926 220.778C22.0608 222.658 18.6441 219.138 18.1134 222.268C17.4152 226.338 15.1063 230.698 18.011 230.898L25.5706 231.208C29.3504 231.208 33.0744 229.228 35.7277 226.968C36.5936 226.228 37.4408 225.048 38.2135 224.488L38.1949 224.508ZM19.1561 90.2252C17.7782 87.4252 17.5641 86.5752 15.8418 83.6351L14.3615 81.485C14.1939 81.245 14.0636 81.045 13.8681 80.765C13.6353 80.445 13.5422 80.385 13.3095 80.115C13.0488 79.805 13.0488 79.725 12.7974 79.415C9.85552 75.8249 3.54341 71.1248 -0.897409 71.0248L-0.897409 56.6645C2.16555 56.9345 5.35884 59.4046 12.0433 58.3946C12.9743 58.2546 14.1939 57.9145 15.0877 57.9145L19.5471 68.4248C19.7147 68.8448 19.873 69.1048 20.0219 69.4748C20.1802 69.8548 20.2919 70.1948 20.4595 70.5648C21.1019 71.9548 21.6698 73.3849 22.3029 74.8349C22.4704 75.2249 22.517 75.4349 22.6846 75.8249C22.8615 76.2349 22.9825 76.4349 23.1594 76.8749L29.3225 91.9553C27.7026 91.5453 27.0602 91.1053 24.6955 90.6852C22.8894 90.3652 21.3346 90.2352 19.1561 90.2352L19.1561 90.2252ZM29.3318 268.069L15.0877 302.11C13.8215 301.46 9.58552 301.33 7.82595 301.33C6.35499 301.33 4.54887 301.71 3.23618 302.02L-0.89742 303.2L-0.897419 288.839C1.48592 288.839 4.71645 287.329 6.23397 286.349C11.3079 283.059 14.678 278.469 17.5176 273.019C18.1227 271.859 18.5975 270.789 19.1654 269.629C21.7256 269.629 24.7327 269.409 27.0323 268.709C27.6933 268.509 28.6615 268.089 29.3411 268.069L29.3318 268.069ZM-0.897417 247.929L-0.897417 241.678C2.26795 241.678 6.18741 243.728 8.63591 245.489C11.522 247.559 13.384 249.589 15.1901 252.819C15.7766 253.869 17.8248 258.189 17.8527 259.479L14.5943 259.079C12.3785 258.629 11.0472 258.179 9.02694 257.249C4.66991 255.239 2.39829 253.039 -0.171246 249.169C-0.338824 248.909 -0.897417 248.259 -0.897417 247.919L-0.897417 247.929ZM17.8527 100.535C17.7131 102.365 14.9853 107.936 13.4491 109.856C11.5592 112.226 8.60799 114.876 5.93605 116.146C1.3742 118.306 2.66828 117.446 -0.897411 118.336C-0.897411 117.346 -1.08362 112.186 -0.701911 111.526C-0.580883 111.316 -0.413304 111.176 -0.236416 110.936C1.63487 108.416 2.119 107.136 4.55819 105.316C7.4815 103.136 12.993 100.535 17.8434 100.535L17.8527 100.535ZM9.27829 321.01L9.23174 321.06C9.23174 321.06 9.25967 321 9.27829 321.01ZM9.12933 321.32C9.08278 321.87 8.91521 322.4 8.77556 322.97C8.62661 323.61 8.5242 324.16 8.41248 324.76C8.19835 325.91 7.95629 327.17 7.82595 328.35L7.23012 336.3C5.47986 336.74 1.83969 339.951 0.573545 341.951C0.275628 342.411 0.0707991 342.811 -0.208498 343.291L-0.673993 344.351C-0.850881 344.731 -0.720533 344.511 -0.897421 344.731L-0.897421 332.55C1.67211 331.91 5.424 327.49 7.15564 324.81C8.08663 323.37 8.22628 322.89 8.88728 321.68L9.12933 321.31L9.12933 321.32ZM1.86762 313.2C1.72797 314.95 0.117359 318.72 -0.89742 319.45L-0.89742 314.92C-0.385376 314.63 -0.0688419 314.37 0.452513 314.03C0.983177 313.69 1.33695 313.5 1.8583 313.2L1.86762 313.2ZM-0.897408 44.9443L-0.897408 40.4142C0.16392 41.1742 1.75591 45.2343 1.86763 46.6643C1.11353 46.4743 -0.143306 45.3743 -0.897408 44.9443ZM9.2783 91.9453C5.08885 92.9953 -0.534324 97.1554 -0.897411 97.2554L-0.89741 81.175C0.98319 81.345 2.69621 82.9151 3.91581 83.9651C4.80025 84.7151 6.69947 87.4952 7.35116 88.5452L9.269 91.9453L9.2783 91.9453ZM9.27829 267.919C9.12934 268.629 8.76625 269.019 8.44971 269.689C8.11456 270.419 7.90044 270.759 7.52804 271.359C5.9826 273.859 1.89555 278.449 -0.897418 278.699L-0.897418 262.619L1.40213 264.209C2.25864 264.759 2.91032 265.129 3.85062 265.639C4.9585 266.229 7.99353 267.819 9.27829 267.929L9.27829 267.919ZM8.9897 38.1241L8.81281 38.2341C8.6173 36.9241 5.74985 32.954 4.80955 31.954C2.42622 29.4139 2.10038 29.0139 -0.897408 27.3039L-0.897407 15.1236L1.36489 18.7837C5.20988 24.3238 7.08117 21.8138 7.36977 24.9838C7.43494 25.7039 7.35116 26.3539 7.45357 27.0839C7.83528 29.864 7.84458 31.264 8.36594 34.5341C8.55214 35.7041 8.91522 37.0741 8.9897 38.1341L8.9897 38.1241ZM8.9897 38.4441L9.13866 38.3941C9.02694 38.5741 9.12004 38.6041 8.9897 38.4441ZM76.682 278.689C76.9054 278.689 76.8589 278.749 76.8589 278.529L82.091 278.529C82.8358 278.509 82.8917 278.369 83.683 278.369C83.683 280.249 84.3813 282.739 84.8281 284.169C85.9174 287.679 88.6452 292.53 91.2054 294.96C93.8029 297.42 93.9611 297.1 96.8007 293.71C97.5641 292.79 99.3702 290.279 98.8023 288.989C98.4578 288.209 96.4655 286.149 95.8045 285.179C95.2459 284.359 93.7936 281.379 93.7098 280.249C95.0504 280.369 99.5657 283.219 100.981 284.149C103.001 285.479 102.927 284.429 104.407 282.059L106.939 277.739C107.265 277.009 106.958 276.589 106.539 276.139C102.796 272.089 92.3971 269.079 87.4163 268.419C83.8785 267.949 80.527 268.349 76.9985 268.529C76.412 268.559 75.7137 268.629 74.969 268.689L70.7423 268.989L69.0199 263.659C67.4652 258.649 66.4504 254.279 65.5753 249.089C65.3798 247.929 65.2215 247.009 65.2215 245.719C66.1339 245.949 68.5265 247.769 69.3551 248.459C78.0692 255.839 72.8835 259.929 79.7542 256.639C80.7504 256.159 81.7466 255.539 82.631 254.899C83.832 254.019 84.4464 253.629 83.5806 251.749C80.7783 245.649 75.8348 240.018 70.1557 236.968C68.992 236.348 64.8677 234.438 63.4712 234.318C63.4712 233.338 63.1361 231.948 62.9499 230.978C61.1624 221.478 59.9986 215.388 56.4143 206.148C55.5206 203.838 54.9899 202.938 53.9286 200.848C53.1559 199.328 51.9363 197.408 50.9494 196.077C50.3629 195.287 49.8322 194.627 49.2457 193.847C48.3613 192.657 45.559 190.387 45.2983 189.967C47.2068 189.967 52.6997 191.917 54.1613 192.627C55.3996 193.227 56.6843 193.977 57.8574 194.747C59.468 195.787 59.8311 196.217 61.2182 197.378L66.888 203.458C68.3124 205.468 65.9849 206.558 65.0353 212.748C64.2067 218.168 64.9608 223.788 66.1059 228.978C67.1579 233.758 66.1711 233.208 74.5314 229.668C75.4717 229.268 75.5089 228.888 75.2948 227.538C74.7362 223.968 73.7773 220.958 73.7773 216.838C74.4755 217.698 84.3347 242.828 84.6326 243.578C85.6288 246.059 87.8352 250.759 89.241 252.999C89.8834 254.029 90.3489 254.929 91.0285 255.919C91.6802 256.849 92.1736 257.739 92.8626 258.639L95.9069 262.549C96.9124 263.619 97.2475 264.259 98.132 264.999C98.6254 265.409 98.8861 265.779 99.3143 266.229C99.5843 266.509 99.5843 266.479 99.8729 266.719C101.912 268.429 101.744 268.469 104.407 270.279C105.226 270.829 108 272.309 109.006 272.539C110.43 272.859 110.887 270.859 112.05 268.749C112.572 267.809 113.167 266.449 113.41 265.369C113.903 263.219 113.084 263.379 111.603 262.849C110.458 262.439 109.518 261.879 108.615 261.219C107.675 260.539 104.584 257.789 103.811 256.849L99.6774 251.609C98.6626 250.259 96.9031 247.309 96.0279 245.849C95.4787 244.929 93.1698 240.348 93.0953 239.318C94.3522 239.008 95.3576 238.468 96.7914 238.138C98.374 237.768 99.3423 237.608 101.232 237.608C101.66 243.108 103.699 247.179 106.734 251.219C108.438 253.489 112.115 257.029 114.62 258.049C115.69 258.489 116.854 259.039 117.385 257.629C117.608 257.029 117.701 256.719 117.99 256.099C118.586 254.829 119.731 252.679 119.517 251.249C119.275 249.669 116.947 247.589 115.746 246.549C114.964 245.879 114.462 245.089 113.773 244.299C112.646 242.998 111.408 240.558 110.98 238.558C113.419 238.558 118.446 241.188 120.774 242.238C122.319 242.938 122.785 243.138 123.436 241.328C123.837 240.228 125.596 235.158 125.503 234.048C125.419 232.998 124.293 232.858 122.831 232.228C118.902 230.538 117.552 229.658 112.804 228.638C107.256 227.448 105.822 227.668 100.515 227.628C97.6572 227.608 91.4661 228.918 89.3248 230.128C89.2038 229.878 85.545 220.878 85.6474 220.648C85.9546 219.968 88.1518 220.428 89.0176 220.778C90.591 221.418 92.5554 223.488 93.7936 224.698C95.2925 226.168 95.8231 225.228 97.713 223.518L98.8768 222.428C101.698 219.898 101.828 219.188 100.115 217.128C97.6758 214.178 93.207 210.988 89.3062 210.478C86.2712 210.088 84.2882 210.608 81.7745 211.238L76.6913 201.248C70.5095 191.307 65.3798 188.487 64.9236 187.817C66.1804 187.847 70.8726 189.707 71.9526 190.257C77.3244 193.037 78.9908 194.607 83.2361 198.118C83.7203 198.518 83.9623 198.888 84.4557 199.298C84.9957 199.738 85.2005 199.998 85.666 200.498C86.1501 201.018 86.355 201.228 86.8856 201.688C87.3232 202.058 87.7235 202.558 88.1332 202.998C89.7158 204.698 91.1961 206.288 92.7881 207.998C93.6167 208.888 94.3615 209.528 95.1901 210.418C98.1413 213.598 102.2 216.848 105.785 219.168C110.849 222.438 116.556 224.868 122.766 226.208C123.511 226.368 126.09 226.848 126.937 226.658C127.989 226.428 128.203 224.288 128.473 223.308C130.307 216.518 129.199 216.908 126.825 216.688C119.563 216.038 105.738 209.148 101.968 203.108C102.992 201.468 107.377 197.958 109.378 197.958C109.574 198.728 110.542 199.778 110.998 200.438C111.287 200.858 111.529 201.168 111.827 201.568C112.143 201.988 112.395 202.378 112.749 202.758C113.754 203.858 114.732 204.858 115.895 205.788C116.305 206.118 116.64 206.398 117.059 206.728C119.61 208.748 124.395 211.128 128.259 211.708C131.527 212.198 130.735 211.308 131.508 205.028C131.89 201.908 132.085 202.268 129.013 201.688C125.792 201.078 120.876 197.968 119.116 195.147C121.975 195.147 124.758 194.677 127.691 194.677C128.817 194.677 131.182 194.767 131.973 194.437C133.137 193.967 132.83 189.437 133.007 188.207C133.612 183.907 132.746 184.847 129.897 184.507C126.043 184.047 120.895 184.417 117.022 185.087C112.171 185.927 107.433 187.377 103.131 189.687C101.893 190.357 101.307 190.667 100.255 191.597C99.3888 192.357 98.5975 192.987 97.7317 193.727L95.1342 195.937L93.4957 194.417C92.9743 193.857 92.4436 193.197 91.8944 192.707C91.5127 192.367 91.3916 192.317 91.0285 191.917C90.7306 191.587 90.5351 191.377 90.2279 191.057C89.9207 190.727 89.7624 190.527 89.4086 190.227C89.0455 189.917 88.8873 189.657 88.4497 189.537C88.4962 188.907 88.5986 188.957 88.9897 188.557C89.7996 187.717 90.5444 187.137 91.6616 186.747C93.2908 186.167 94.5197 185.917 96.4283 185.627C98.1413 185.367 99.7891 185.177 101.465 184.797C103.643 184.297 102.973 182.547 102.973 180.177C102.973 179.147 103.001 178.077 102.973 177.047C102.955 175.817 102.703 175.527 101.744 175.237C97.7503 174.047 91.0192 174.807 88.4311 170.647C88.7942 170.057 92.546 166.617 93.4119 165.687L95.1156 164.087C95.5997 164.437 97.6386 166.607 100.143 168.367L103.01 170.127C111.231 175.107 122.71 176.077 131.88 175.327C132.597 175.267 133.1 174.957 133.184 174.217C133.24 173.717 132.904 170.347 132.811 169.637C132.216 165.127 133.333 165.177 127.952 165.177C126.36 165.177 124.982 165.157 123.585 165.027C122.217 164.897 120.736 164.557 119.377 164.557C120.42 162.877 122.012 161.747 123.557 160.617C124.963 159.607 127.253 158.447 129.255 158.157C132.541 157.667 131.983 157.597 131.35 152.927C130.745 148.476 131.452 147.746 128.11 148.186C123.799 148.746 120.252 150.607 116.975 153.247C115.476 154.447 114.033 155.817 112.786 157.337C111.566 158.827 110.216 160.407 109.192 162.057C107.451 161.157 107.358 161.647 105.142 159.847C104.146 159.037 102.582 157.807 101.921 156.747C102.573 155.697 103.457 154.857 104.351 154.047L107.209 151.657C108.261 150.907 109.257 150.196 110.347 149.566C114.974 146.876 119.778 144.646 125.038 143.486L128.436 143.076C128.985 142.906 128.845 142.826 129.246 142.536C129.246 139.746 128.92 138.376 128.324 136.186C127.514 133.196 127.961 132.906 124.488 133.366C120.699 133.866 117.292 135.206 113.819 136.576C112.925 136.926 112.32 137.236 111.454 137.626C109.108 138.676 106.772 139.956 104.686 141.436L98.7278 146.126C98.3647 146.426 98.1785 146.626 97.7689 146.976C95.8418 148.586 94.2591 150.457 92.5181 152.257L89.8276 154.987C88.0959 156.847 86.3922 158.827 84.5861 160.447C79.568 164.957 76.2258 167.797 69.9509 170.487C69.0199 170.887 65.6311 172.177 64.5698 172.207L69.9789 167.557C70.9564 166.637 73.768 162.977 74.4942 161.947C77.8923 157.057 79.1212 154.047 81.7186 148.786C84.0368 148.846 87.9563 150.987 93.3002 148.116C95.1808 147.106 96.9217 146.046 98.3927 144.536C99.2678 143.646 100.273 142.766 100.897 141.606C101.893 139.776 99.6402 138.486 98.6068 137.346C95.0318 133.436 94.9387 134.136 92.7974 136.176C90.8516 138.016 88.9152 140.206 85.7871 139.416C85.7871 137.766 86.746 135.976 87.3046 134.486C87.9097 132.856 88.5614 131.336 89.2783 129.896C89.7531 129.936 90.4141 130.276 90.9354 130.466C100.515 133.876 109.844 132.836 119.2 129.096L123.967 127.186C124.619 126.966 125.149 126.876 125.391 126.206C125.745 125.216 123.874 119.756 123.492 118.766C122.422 116.006 121.342 117.526 117.757 119.106C115.551 120.076 113.307 120.876 110.942 121.466C112.004 116.566 114.75 114.636 117.813 111.356C120.988 107.946 118.977 106.496 117.385 102.365C116.51 100.095 113.372 102.526 112.209 103.466C111.036 104.416 109.844 105.276 108.801 106.366C108.131 107.066 107.312 107.696 106.725 108.516C104.993 110.946 104.025 112.126 102.843 115.276C102.154 117.126 101.381 120.116 101.204 122.416C98.8768 122.416 94.6315 121.346 93.0674 120.546C93.3002 119.486 93.9425 118.276 94.4266 117.316C96.2235 113.736 98.2251 110.196 100.543 107.026L102.582 104.526C103.867 102.736 108.243 99.0754 109.974 97.9554C113.372 95.7554 114.992 97.5854 112.106 91.3453C110.049 86.8952 109.9 86.9552 107.516 87.9752C106.269 88.5152 105.599 88.9252 104.5 89.5752C103.094 90.4152 101.828 91.4553 100.58 92.5453L97.0986 95.9954C95.5811 97.6254 94.2032 99.3454 92.9184 101.185C87.6677 108.716 85.2192 114.536 81.9328 122.956L76.5516 136.536C76.0955 137.716 75.6672 138.826 75.1831 139.906C74.7362 140.896 74.4104 142.336 73.7307 143.186C73.7307 135.996 76.6075 131.426 74.6617 130.326C73.5259 129.686 69.6996 128.166 68.4148 127.666C66.4411 126.886 66.4411 129.086 66.0966 130.766C64.7653 137.236 63.3037 145.766 66.2735 151.987C67.819 155.237 68.061 154.837 64.905 158.687L62.7264 161.027C60.3152 163.627 57.3267 165.887 54.1427 167.257C50.8377 168.677 48.4637 169.207 45.1121 170.047C45.4473 169.557 46.2852 168.957 46.76 168.537C47.8399 167.567 49.0036 166.367 49.8881 165.187C54.8596 158.567 56.7309 153.397 59.2632 145.286C61.1065 139.386 62.0841 133.346 63.2106 127.206C63.6667 124.736 62.6799 126.256 68.3589 123.836C70.2768 123.016 72.0736 121.886 73.6749 120.646L75.9558 118.726C78.3112 116.286 83.2641 110.476 83.8785 107.246C84.074 106.196 83.7761 106.016 83.3013 105.606C81.8304 104.316 79.8287 103.336 77.9109 102.495C76.6727 101.955 75.8906 101.665 75.3507 103.096C74.2335 106.036 72.3063 108.806 70.0626 110.836C69.2806 111.546 68.5917 112.066 67.7259 112.696C66.7763 113.376 66.0035 113.756 65.026 114.316C65.026 112.216 65.4822 109.906 65.8639 107.876C66.2456 105.796 66.7297 103.956 67.2417 102.015C67.791 99.9254 69.7182 93.0453 70.6957 91.0553C73.7214 91.0553 76.142 91.3753 78.9815 91.5253C81.6348 91.6653 84.8095 91.7553 87.407 91.5253C89.7531 91.3153 92.6112 90.6152 94.6222 89.9052C95.8231 89.4852 96.8286 89.1652 97.8992 88.7352C99.0537 88.2752 99.994 87.8652 101.12 87.3552C102.582 86.6852 104.09 85.8651 105.338 84.8551C105.738 84.5351 106.25 84.1851 106.576 83.8451C107.675 82.6851 106.911 81.8751 106.213 80.865C105.664 80.085 103.187 75.7549 102.405 75.4249C101.614 75.0849 100.264 76.3049 99.5378 76.745C98.0948 77.615 95.1528 79.415 93.5329 79.815C94.2032 76.735 96.1583 74.5149 97.9272 72.2049C99.4074 70.2748 99.2213 69.5448 96.9217 66.4947C96.2048 65.5447 94.4453 63.0947 93.1419 63.4547C91.9502 63.7747 89.8183 66.5147 88.9245 67.6848L86.8856 70.9648C85.3309 73.9649 83.6458 78.005 83.6458 81.6951L79.2888 81.385C78.544 81.345 77.7061 81.445 76.9706 81.385C76.1979 81.315 75.6207 81.235 74.6338 81.235C74.7921 80.495 75.2389 79.465 75.5555 78.785C76.6354 76.4449 77.9481 74.1849 79.2888 72.0248C81.8955 67.8148 84.7071 63.6247 88.0401 60.0446C88.459 59.5946 89.5203 58.7346 89.6041 58.1146C89.7624 56.8445 85.8988 53.0044 85.2005 52.0944C84.493 51.1744 84.1392 50.9744 82.9662 51.6244C82.3983 51.9344 81.458 52.6644 81.0018 53.1044C79.9405 54.1145 78.6929 55.5545 77.8364 56.7345C77.343 57.4045 76.8682 58.0746 76.3841 58.7646C73.9728 62.2246 71.7384 65.8247 69.7927 69.6448C66.7949 75.5449 64.1322 81.605 61.9723 87.9452C61.8979 88.1552 61.8141 88.4252 61.7303 88.6252L61.4137 89.2252C61.302 87.7552 59.1421 79.625 58.7418 77.885C57.8667 74.0849 56.7216 70.5448 55.893 66.7347C56.2654 66.6447 56.9729 66.2847 57.3453 66.1047C61.5534 64.0747 65.3611 61.3446 69.0386 58.3646C69.4668 58.0146 69.7647 57.7545 70.1744 57.3945C72.1108 55.6945 73.9449 53.8445 75.5648 51.7844C76.4772 50.6244 78.5812 47.5643 78.544 45.9543C78.5253 45.1843 77.2033 43.9443 76.7192 43.4242L73.3863 40.2942C72.9301 39.9242 72.5298 39.5742 71.9153 39.8842C69.6623 41.0142 68.0796 46.0343 66.227 47.3743C65.6684 44.8143 65.4356 43.5942 65.8546 40.8842C66.0128 39.8342 66.2549 38.9241 66.5435 38.0241C67.7072 34.304 68.3869 35.6541 62.6892 31.194C62.2796 30.874 62.0189 30.754 61.6186 30.474C60.6131 29.764 60.2314 29.5639 59.3656 30.624C57.8015 32.544 56.3026 38.3241 56.2002 41.9042C56.0047 48.9644 57.9505 50.6044 58.6766 53.9345C57.6246 54.2345 55.5858 56.2845 53.7331 56.7445C53.5469 54.3145 52.8673 52.0644 52.5973 49.6944C51.5546 40.4142 52.2342 36.9041 54.6082 27.7039C54.9248 26.4839 55.5578 25.6339 54.3569 24.8538C52.2714 23.5038 47.7934 19.7837 46.76 21.6038C46.0524 22.8538 45.0656 26.3339 44.6373 27.7539C44.0135 29.814 43.455 32.334 43.157 34.5941C41.8537 44.5043 43.7529 54.8745 45.6614 64.3247C46.5831 68.8748 47.9144 73.1949 48.9106 77.535C49.4412 79.845 49.9346 81.9551 50.4839 84.2851C50.847 85.8351 51.899 89.8352 51.9921 91.0953C51.2287 90.4952 49.8602 86.6352 49.525 85.3151C49.1992 84.0451 49.0968 83.3051 48.8919 81.7851C48.6592 80.055 47.5327 80.315 46.1828 80.325C44.8794 80.325 43.5667 80.325 42.2633 80.325C39.0141 80.325 39.6472 81.195 39.7962 83.7651C39.8986 85.5751 40.3455 87.5652 40.8296 89.2152C41.8723 92.7453 43.3898 96.1254 45.559 98.9654C47.6537 101.705 50.0277 104.426 53.1838 105.766C54.6827 106.406 54.4872 106.186 54.6175 108.606C54.7479 111.236 54.7572 114.026 54.7665 116.876C54.7851 122.436 52.5135 134.476 51.2939 138.906L49.404 145.306C48.054 149.316 46.3876 153.367 44.0973 156.777C43.4363 157.757 41.2113 160.937 40.2337 161.217C43.0081 156.757 45.1494 151.667 46.3783 145.486C47.8585 138.016 47.8399 132.376 47.3651 124.836C47.1603 121.556 46.5738 118.206 46.0152 115.196C43.7715 103.146 39.7962 91.9953 35.1505 80.805C35.0202 80.485 34.8526 80.185 34.7223 79.865C33.6423 77.265 34.3685 78.595 36.4167 74.5049C38.5859 70.1548 40.662 63.3447 40.8203 56.9045C40.8482 55.9345 41.0716 55.6345 40.9134 54.4745C40.5689 52.0944 40.662 49.4944 39.6286 47.4243C38.679 45.5343 34.0613 47.9243 32.5438 48.3243C30.4676 48.8744 30.6352 48.9044 31.0635 53.0244C31.1473 53.8545 31.1659 54.9445 31.2218 55.6645C31.3055 56.7745 31.11 57.3945 31.0821 58.3146C31.0449 59.6046 30.1139 66.5347 29.0432 67.3747C28.8198 66.3647 26.8089 62.1546 26.2037 60.5946L23.569 53.5945C22.7777 51.4744 19.0723 41.1542 19.0258 38.8041C22.3773 38.7241 28.1588 35.5941 30.7376 33.744C33.9682 31.424 36.8822 28.5639 39.1631 25.1539C40.3548 23.3638 41.2764 21.7538 42.3285 19.8037C42.9988 18.5537 42.5612 17.8337 41.4533 17.2037L37.4315 14.8136C37.1428 14.6636 36.9939 14.5836 36.7518 14.4536C35.2064 13.5836 34.8992 13.4736 33.7261 15.4136C32.972 16.6637 31.4079 20.2037 30.5049 20.8538C29.816 19.4637 29.6484 18.0137 29.788 16.1837C29.8439 15.4236 30.0766 14.4736 30.2815 13.7336C30.5235 12.8436 30.8028 12.3236 30.2535 11.6136C29.6298 10.8135 23.9321 7.97349 22.4332 8.4135C21.6512 8.6435 21.6139 9.32352 21.465 10.1935C21.0274 12.6436 20.3478 15.2736 20.3292 17.8837C20.3012 22.7138 22.5263 25.3339 22.6566 27.1039C21.3812 27.8239 18.9885 28.9339 17.1359 28.9739C17.1172 28.2639 16.9031 27.1739 16.8566 26.4639C16.7821 25.4639 16.6983 24.5938 16.6983 23.6638C16.7076 20.8138 16.8473 18.3237 17.2197 15.6336L18.3462 7.94349C18.4765 7.09347 18.5696 6.34345 17.7689 5.97344C17.499 5.85344 17.0893 5.77344 16.7542 5.65344C16.3445 5.51343 16.0001 5.38343 15.6649 5.26343C8.94316 2.85338 9.70657 2.72337 8.35664 9.08351C8.26354 9.51352 8.20767 9.88353 8.13319 10.2435C8.00285 10.8435 8.06802 11.0336 7.69563 11.3336C7.59322 10.8735 7.3884 10.4435 7.21151 9.97353C7.00669 9.41352 6.93221 9.00351 6.79256 8.3935C6.57844 7.49348 6.33638 6.12345 6.25259 5.07342C5.97329 1.32335 6.01054 2.24336 2.62173 1.16334C-0.0874463 0.303323 -0.832234 0.093319 -3.64382 0.0933189L-40.2597 0.0933173C-41.6375 0.0933172 -46.5438 -0.21669 -47.3352 0.293321C-47.5959 0.463325 -47.7448 0.773331 -47.81 1.15334L-47.81 358.181C-47.7541 360.671 -47.0373 359.881 -39.8128 359.881L-3.33663 359.881C-1.8098 359.881 -1.14879 359.921 0.0335679 359.601C6.74601 357.751 5.7126 359.361 6.33636 354.661C6.57842 352.831 6.70876 351.471 7.33253 349.801L8.00284 348.491L9.40863 355.571C10.0976 357.261 14.4918 355.191 15.5066 354.831C20.3757 353.101 18.0855 353.881 17.1731 345.041C17.0893 344.191 17.0521 343.221 16.931 342.331C16.7635 341.131 16.7262 335.21 16.931 333.72C17.0241 333.09 17.1638 331.55 17.1638 331C18.5603 331.35 20.1057 331.56 21.3812 332.25C21.8187 332.48 22.1632 332.75 22.6846 332.88C22.6194 333.71 22.2191 334.29 21.977 334.93C20.0685 339.921 20.1336 341.741 20.9808 347.041C21.1112 347.881 21.4556 351.181 22.1911 351.521C23.7645 352.241 28.8943 349.661 30.058 348.611C31.3986 347.411 29.518 345.791 29.8066 341.631C29.8718 340.751 30.2163 340.071 30.3838 339.281C32.0038 339.751 33.3723 344.421 34.5547 345.731C34.9271 346.141 35.4484 346.321 36.0722 346.031C36.426 345.871 36.9753 345.501 37.4035 345.271L41.5278 342.991C42.7008 342.241 42.9708 341.621 42.3471 340.331C40.0103 335.5 37.3011 331.39 33.2234 328.12C29.1456 324.84 25.5986 323.01 20.6178 321.68C19.9754 321.51 19.4726 321.32 18.9047 321.18L19.8264 317.33C20.2267 316.01 20.5712 314.9 20.9902 313.58C22.1911 309.79 27.0881 296.93 28.7732 293.37C29.0339 292.83 28.8198 292.91 29.3691 292.76C29.4063 293.18 29.8066 294.33 29.937 294.81C31.231 299.57 31.529 304.63 30.8586 309.67C30.7097 310.79 31.0169 311.24 31.7245 311.47L35.6067 312.76C39.4331 314.02 40.0475 313.55 40.7178 308.38C40.9506 306.58 40.9971 305 40.8575 303.21C40.5782 299.48 40.3082 297.36 39.4238 293.66C39.0979 292.29 38.6045 290.859 38.1483 289.569C37.1894 286.879 36.0256 284.699 34.5361 282.359C33.8285 281.259 34.7129 280.499 35.4577 278.519C35.737 277.779 35.9605 277.359 36.2677 276.579C41.0902 264.089 44.4977 254.179 46.6482 240.418C47.03 237.988 47.1324 235.538 47.4768 233.038C47.7561 231.008 47.7096 226.968 47.691 224.818C47.6816 223.938 47.5699 223.368 47.542 222.318C47.4396 217.618 45.7079 210.428 44.1811 206.418C43.455 204.498 42.524 202.608 41.5371 200.828C41.2392 200.288 40.6992 199.598 40.5689 199.058C41.5464 199.618 41.9374 200.388 42.6357 201.208C45.0097 203.948 47.2999 208.868 48.6219 212.418C51.3032 219.608 53.5748 229.498 54.3475 237.178C54.7292 241.008 55.0923 247.689 54.6268 251.789C54.571 252.259 54.3848 253.319 54.3755 253.859C52.3552 254.039 48.9943 257.059 47.5048 258.659C44.6187 261.759 41.6861 267.109 40.6247 271.719C40.3454 272.929 40.1686 273.769 39.9637 275.069C39.8706 275.639 39.5727 278.129 39.7496 278.779C40.0568 279.919 41.444 279.619 42.7474 279.619C44.0508 279.619 45.3635 279.619 46.6762 279.619C49.9346 279.639 48.3054 278.989 49.5995 274.639C50.186 272.689 50.9867 270.469 51.9363 268.839L52.0573 268.969C51.9456 269.879 51.5266 271.169 51.3404 272.129C51.1077 273.319 50.847 274.339 50.577 275.519C50.3256 276.599 50.065 277.709 49.795 278.889L47.3465 288.909C45.5311 295.79 44.1439 302.57 43.3153 309.71C42.226 319.04 42.6822 326.69 45.6893 335.32C45.9314 336.01 46.4714 337.761 46.8065 338.341C47.4489 339.451 48.7895 338.761 49.5995 338.32C50.9401 337.58 52.951 336.06 54.4406 335.09C55.5485 334.38 54.9713 333.26 54.6175 332.13C53.8262 329.61 52.5693 324.83 52.3645 322.06C52.0387 317.63 52.0759 315.13 52.7928 310.52C53.0628 308.8 53.8076 304.61 53.8076 303.18C56.2654 304.45 56.1443 304.28 58.7511 306.15C58.0901 309.18 56.1909 310.51 56.2747 318.02C56.3119 321.6 57.6339 326.5 59.4121 329.33C60.399 330.91 61.9444 329.43 63.7133 328.03C64.3836 327.5 64.9422 327.03 65.6218 326.49C68.3031 324.34 67.4931 325.38 66.6273 322.04C66.3666 321.03 66.1059 320.17 65.929 319.04C65.7522 317.91 65.687 316.96 65.7149 315.66C65.7428 314.44 66.078 313.55 66.3014 312.54C67.3721 313.31 69.1782 316.32 69.9044 317.57C70.3978 318.42 71.0588 319.5 71.8781 319.99C72.8091 320.54 73.5632 319.69 74.55 318.75C75.4065 317.93 78.5253 315.16 78.6091 314.09C78.6743 313.29 77.7433 311.53 77.3802 310.95C77.0823 310.48 76.8868 310.12 76.5609 309.64C76.1792 309.07 75.9744 308.85 75.5741 308.36C71.394 303.32 67.1579 299.56 61.6558 296.15L55.9954 293.18L61.5161 270.699L64.2998 278.329C64.6257 279.199 64.9887 279.949 65.3146 280.829L69.8858 290.289C72.1015 294.3 72.8742 295.4 75.0621 298.93C75.5275 299.67 75.9372 300.32 76.4399 301.04C76.952 301.77 77.3244 302.39 77.855 303.11C78.8326 304.45 83.3479 310.63 85.275 307.93L87.649 305.17C88.2169 304.57 89.781 302.72 89.7158 301.95C89.6786 301.45 89.3993 301.15 89.0921 300.88C84.6885 297.01 79.8101 288.889 77.0171 283.399C76.1979 281.789 75.5275 280.249 74.7455 278.659L76.7471 278.659L76.682 278.689Z" fill="#D7B46A" fill-opacity="0.2"/>
</g>
</g>
<defs>
<clipPath id="clip0_2_5">
<rect width="133" height="360" fill="white"/>
</clipPath>
<clipPath id="clip1_2_5">
<rect width="360" height="143" fill="white" transform="translate(143.19) rotate(90)"/>
</clipPath>
</defs>
</svg>
