<svg width="361" height="144" viewBox="0 0 361 144" fill="none" xmlns="http://www.w3.org/2000/svg">
<g clip-path="url(#clip0_4_2)">
<path d="M165.207 25.7093L165.257 25.7559C165.257 25.7559 165.197 25.7279 165.207 25.7093ZM176.917 63.0606L180.357 59.7184L183.987 63.0234C183.827 63.554 183.387 64.2895 183.097 64.7457C182.247 66.0584 180.867 68.749 180.507 70.1827L180.087 69.2703C179.937 68.8979 179.857 68.6838 179.707 68.3114C179.457 67.6783 179.187 67.1384 178.847 66.496C178.487 65.835 178.187 65.3881 177.857 64.8016C177.537 64.2244 177.247 63.6285 176.927 63.0513L176.917 63.0606ZM129.136 118.864L129.516 125.195C129.776 126.964 129.556 127.727 133.636 126.675C134.446 126.47 135.306 126.21 136.146 125.958C138.986 125.12 139.686 126.321 139.316 123.044C138.976 120.047 138.856 117.989 140.326 115.317C140.606 114.805 140.916 114.312 141.266 113.874C141.476 113.613 141.606 113.464 141.816 113.222C142.836 112.059 142.076 112.859 143.066 112.059C143.386 111.798 143.346 111.779 143.746 111.528C149.316 108.009 157.077 110.429 160.857 114.907C165.037 119.86 163.507 128.1 160.677 133.388L158.297 136.981C155.417 140.603 152.927 142.037 148.916 143.945C148.386 144.196 148.006 144.578 147.406 144.578H128.986C128.986 143.135 128.266 140.323 127.836 139.113C125.756 133.192 122.646 128.09 117.706 123.836C114.826 121.35 111.516 119.367 107.906 117.849C106.806 117.384 103.806 116.35 102.445 116.248C103.286 114.777 102.915 114.889 104.496 112.924C110.326 105.653 126.466 105.495 135.856 105.495C135.106 106.529 133.496 107.273 131.276 110.969C130.116 112.906 129.136 115.913 129.136 118.864ZM225.008 105.495C232.508 105.495 239.638 105.84 245.619 107.236C248.539 107.916 251.479 108.865 253.579 110.29C254.679 111.025 255.569 111.91 256.389 112.906C257.049 113.706 258.139 115.14 258.419 116.248C254.439 117.114 251.409 118.343 248.399 120.14C246.569 121.229 242.888 123.836 241.648 125.335C241.318 125.726 241.088 125.884 240.738 126.228C236.338 130.464 232.418 138.564 231.878 144.578H213.918C212.558 144.578 212.288 144.103 211.328 143.656C208.388 142.279 205.128 140.156 203.148 137.754C201.998 136.357 201.308 135.324 200.388 133.63C197.277 127.848 195.687 119.06 201.128 113.781L201.288 113.632C201.288 113.632 201.348 113.585 201.368 113.567C206.468 109.154 214.968 108.223 219.168 113.241C220.048 114.293 220.758 115.457 221.278 116.797C223.158 121.629 219.638 125.046 222.768 125.577C226.838 126.275 231.198 128.584 231.398 125.679L231.708 118.119C231.708 114.34 229.728 110.616 227.468 107.962C226.728 107.096 225.548 106.249 224.988 105.477L225.008 105.495ZM90.7252 124.534C87.9252 125.912 87.0752 126.126 84.1351 127.848L81.9851 129.328C81.745 129.496 81.545 129.626 81.265 129.822C80.945 130.055 80.885 130.148 80.615 130.381C80.305 130.641 80.225 130.641 79.915 130.893C76.3249 133.834 71.6248 140.147 71.5248 144.587H57.1645C57.4345 141.524 59.9046 138.331 58.8946 131.647C58.7546 130.716 58.4146 129.496 58.4146 128.602L68.9248 124.143C69.3448 123.975 69.6048 123.817 69.9748 123.668C70.3548 123.51 70.6948 123.398 71.0648 123.231C72.4549 122.588 73.8849 122.02 75.3349 121.387C75.7249 121.22 75.9349 121.173 76.3249 121.005C76.7349 120.829 76.9349 120.708 77.375 120.531L92.4553 114.367C92.0453 115.987 91.6053 116.63 91.1853 118.994C90.8652 120.801 90.7352 122.355 90.7352 124.534H90.7252ZM268.569 114.358L302.61 128.602C301.96 129.868 301.83 134.104 301.83 135.864C301.83 137.335 302.21 139.141 302.52 140.454L303.7 144.587H289.339C289.339 142.204 287.829 138.974 286.849 137.456C283.559 132.382 278.969 129.012 273.519 126.172C272.359 125.567 271.289 125.092 270.129 124.525C270.129 121.964 269.909 118.957 269.209 116.658C269.009 115.997 268.589 115.028 268.569 114.349V114.358ZM248.429 144.587H242.178C242.178 141.422 244.228 137.503 245.989 135.054C248.059 132.168 250.089 130.306 253.319 128.5C254.369 127.913 258.689 125.865 259.979 125.837L259.579 129.096C259.129 131.311 258.679 132.643 257.749 134.663C255.739 139.02 253.539 141.292 249.669 143.861C249.409 144.029 248.759 144.587 248.419 144.587H248.429ZM101.035 125.837C102.865 125.977 108.436 128.705 110.356 130.241C112.726 132.131 115.376 135.082 116.646 137.754C118.806 142.316 117.946 141.022 118.836 144.587C117.846 144.587 112.686 144.774 112.026 144.392C111.816 144.271 111.676 144.103 111.436 143.926C108.916 142.055 107.636 141.571 105.816 139.132C103.636 136.209 101.035 130.697 101.035 125.847V125.837ZM321.51 134.412L321.56 134.458C321.56 134.458 321.5 134.43 321.51 134.412ZM321.82 134.561C322.37 134.607 322.9 134.775 323.47 134.914C324.11 135.063 324.66 135.166 325.26 135.278C326.41 135.492 327.67 135.734 328.85 135.864L336.8 136.46C337.24 138.21 340.451 141.85 342.451 143.116C342.911 143.414 343.311 143.619 343.791 143.898L344.851 144.364C345.231 144.541 345.011 144.411 345.231 144.587H333.05C332.41 142.018 327.99 138.266 325.31 136.534C323.87 135.603 323.39 135.464 322.18 134.803L321.81 134.561H321.82ZM313.7 141.822C315.45 141.962 319.22 143.573 319.95 144.587H315.42C315.13 144.075 314.87 143.759 314.53 143.237C314.19 142.707 314 142.353 313.7 141.832V141.822ZM45.4443 144.587H40.9142C41.6742 143.526 45.7343 141.934 47.1643 141.822C46.9743 142.576 45.8743 143.833 45.4443 144.587ZM92.4453 134.412C93.4953 138.601 97.6554 144.224 97.7554 144.587L81.675 144.587C81.8451 142.707 83.4151 140.994 84.4651 139.774C85.2151 138.89 87.9952 136.991 89.0452 136.339L92.4453 134.421V134.412ZM268.419 134.412C269.129 134.561 269.519 134.924 270.189 135.24C270.919 135.575 271.259 135.79 271.859 136.162C274.359 137.707 278.949 141.794 279.199 144.587L263.119 144.587L264.709 142.288C265.259 141.431 265.629 140.78 266.139 139.839C266.729 138.731 268.319 135.696 268.429 134.412H268.419ZM38.6241 134.7L38.7341 134.877C37.4241 135.073 33.454 137.94 32.454 138.88C29.9139 141.264 29.5139 141.59 27.8039 144.587H15.6236L19.2837 142.325C24.8238 138.48 22.3138 136.609 25.4839 136.32C26.2039 136.255 26.8539 136.339 27.5839 136.236C30.364 135.855 31.764 135.845 35.0341 135.324C36.2041 135.138 37.5741 134.775 38.6341 134.7H38.6241ZM38.9441 134.7L38.8941 134.551C39.0741 134.663 39.1041 134.57 38.9441 134.7ZM279.189 67.008C279.189 66.7846 279.249 66.8311 279.029 66.8311V61.599C279.009 60.8542 278.869 60.7983 278.869 60.007C280.749 60.007 283.239 59.3087 284.669 58.8619C288.179 57.7726 293.03 55.0448 295.46 52.4846C297.92 49.8871 297.6 49.7289 294.21 46.8893C293.29 46.1259 290.779 44.3198 289.489 44.8877C288.709 45.2322 286.649 47.2245 285.679 47.8855C284.859 48.4441 281.879 49.8964 280.749 49.9802C280.869 48.6396 283.719 44.1243 284.649 42.7092C285.979 40.6889 284.929 40.7634 282.559 39.2831L278.239 36.7509C277.509 36.425 277.089 36.7322 276.639 37.1512C272.589 40.8938 269.579 51.2929 268.919 56.2737C268.449 59.8115 268.849 63.163 269.029 66.6915C269.059 67.278 269.129 67.9763 269.189 68.721L269.489 72.9477L264.159 74.6701C259.149 76.2248 254.779 77.2396 249.589 78.1147C248.429 78.3102 247.509 78.4685 246.219 78.4685C246.449 77.5561 248.269 75.1635 248.959 74.3349C256.339 65.6208 260.429 70.8065 257.139 63.9358C256.659 62.9396 256.039 61.9434 255.399 61.059C254.519 59.858 254.129 59.2436 252.249 60.1094C246.149 62.9117 240.518 67.8552 237.468 73.5343C236.848 74.698 234.938 78.8223 234.818 80.2188C233.838 80.2188 232.448 80.5539 231.478 80.7401C221.978 82.5276 215.888 83.6914 206.648 87.2757C204.338 88.1694 203.438 88.7001 201.348 89.7614C199.828 90.5341 197.908 91.7537 196.577 92.7406C195.787 93.3271 195.127 93.8578 194.347 94.4443C193.157 95.3287 190.887 98.131 190.467 98.3917C190.467 96.4832 192.417 90.9903 193.127 89.5287C193.727 88.2904 194.477 87.0057 195.247 85.8326C196.287 84.222 196.717 83.8589 197.878 82.4718L203.958 76.802C205.968 75.3776 207.058 77.7051 213.248 78.6547C218.668 79.4833 224.288 78.7292 229.478 77.5841C234.258 76.5321 233.708 77.5189 230.168 69.1586C229.768 68.2183 229.388 68.1811 228.038 68.3952C224.468 68.9538 221.458 69.9127 217.338 69.9127C218.198 69.2145 243.328 59.3553 244.078 59.0574C246.559 58.0612 251.259 55.8548 253.499 54.449C254.529 53.8066 255.429 53.3411 256.419 52.6615C257.349 52.0098 258.239 51.5164 259.139 50.8274L263.049 47.7831C264.119 46.7776 264.759 46.4425 265.499 45.558C265.909 45.0646 266.279 44.8039 266.729 44.3757C267.009 44.1057 266.979 44.1057 267.219 43.8171C268.929 41.7782 268.969 41.9458 270.779 39.2831C271.329 38.4639 272.809 35.6895 273.039 34.6841C273.359 33.2596 271.359 32.8035 269.249 31.6397C268.309 31.1184 266.949 30.5225 265.869 30.2805C263.719 29.787 263.879 30.6063 263.349 32.0866C262.939 33.2317 262.379 34.172 261.719 35.0751C261.039 36.0154 258.289 39.1063 257.349 39.879L252.109 44.0126C250.759 45.0274 247.809 46.7869 246.349 47.6621C245.429 48.2113 240.848 50.5202 239.818 50.5947C239.508 49.3378 238.968 48.3324 238.638 46.8986C238.268 45.316 238.108 44.3477 238.108 42.4578C243.608 42.0296 247.679 39.9907 251.719 36.9557C253.989 35.252 257.529 31.5745 258.549 29.0702C258.989 27.9995 259.539 26.8358 258.129 26.3051C257.529 26.0817 257.219 25.9886 256.599 25.7C255.329 25.1042 253.179 23.9591 251.749 24.1732C250.169 24.4152 248.089 26.7427 247.049 27.9437C246.379 28.7257 245.589 29.2285 244.799 29.9174C243.498 31.0439 241.058 32.2821 239.058 32.7104C239.058 30.2712 241.688 25.2438 242.738 22.9163C243.438 21.3709 243.638 20.9054 241.828 20.2537C240.728 19.8534 235.658 18.0938 234.548 18.1869C233.498 18.2707 233.358 19.3972 232.728 20.8589C231.038 24.7876 230.158 26.1376 229.138 30.8856C227.948 36.4343 228.168 37.868 228.128 43.1747C228.108 46.0328 229.418 52.2239 230.628 54.3652C230.378 54.4862 221.378 58.145 221.148 58.0426C220.468 57.7354 220.928 55.5382 221.278 54.6724C221.918 53.099 223.988 51.1346 225.198 49.8964C226.668 48.3975 225.728 47.8669 224.018 45.977L222.928 44.8132C220.398 41.9923 219.688 41.862 217.628 43.575C214.678 46.0142 211.488 50.483 210.978 54.3838C210.588 57.4188 211.108 59.4018 211.738 61.9155L201.748 66.9987C191.807 73.1805 188.987 78.3102 188.317 78.7664C188.347 77.5096 190.207 72.8174 190.757 71.7374C193.537 66.3656 195.107 64.6992 198.618 60.4539C199.018 59.9697 199.388 59.7277 199.798 59.2343C200.238 58.6943 200.498 58.4895 200.998 58.024C201.518 57.5399 201.728 57.335 202.188 56.8044C202.558 56.3668 203.058 55.9665 203.498 55.5568C205.198 53.9742 206.788 52.4939 208.498 50.9019C209.388 50.0733 210.028 49.3285 210.918 48.4999C214.098 45.5487 217.348 41.4896 219.668 37.9053C222.938 32.8407 225.368 27.1337 226.708 20.924C226.868 20.1792 227.348 17.6004 227.158 16.7532C226.928 15.7012 224.788 15.487 223.808 15.2171C217.018 13.383 217.408 14.4909 217.188 16.8649C216.538 24.1266 209.648 37.9518 203.608 41.7223C201.968 40.6982 198.458 36.3133 198.458 34.3117C199.228 34.1161 200.278 33.1479 200.938 32.6917C201.358 32.4031 201.668 32.1611 202.068 31.8632C202.488 31.5466 202.878 31.2953 203.258 30.9415C204.358 29.936 205.358 28.9585 206.288 27.7947C206.618 27.3851 206.898 27.0499 207.228 26.631C209.248 24.0801 211.628 19.2948 212.208 15.4312C212.698 12.1634 211.808 12.9547 205.528 12.182C202.408 11.8003 202.768 11.6048 202.188 14.6771C201.578 17.8983 198.468 22.8139 195.647 24.5735C195.647 21.7154 195.177 18.9317 195.177 15.9991C195.177 14.8726 195.267 12.5079 194.937 11.7165C194.467 10.5528 189.937 10.86 188.707 10.6831C184.407 10.078 185.347 10.9438 185.007 13.7926C184.547 17.6469 184.917 22.7953 185.587 26.6682C186.427 31.5187 187.877 36.2574 190.187 40.5586C190.857 41.7968 191.167 42.3833 192.097 43.4354C192.857 44.3012 193.487 45.0925 194.227 45.9583L196.437 48.5558L194.917 50.1943C194.357 50.7157 193.697 51.2464 193.207 51.7956C192.867 52.1774 192.817 52.2984 192.417 52.6615C192.087 52.9594 191.877 53.1549 191.557 53.4621C191.227 53.7693 191.027 53.9276 190.727 54.2814C190.417 54.6445 190.157 54.8027 190.037 55.2403C189.407 55.1938 189.457 55.0914 189.057 54.7003C188.217 53.8904 187.637 53.1456 187.247 52.0284C186.667 50.3992 186.417 49.1703 186.127 47.2617C185.867 45.5487 185.677 43.9009 185.297 42.2251C184.797 40.0466 183.047 40.7169 180.677 40.7169C179.647 40.7169 178.577 40.6889 177.547 40.7169C176.317 40.7355 176.027 40.9869 175.737 41.9458C174.547 45.9397 175.307 52.6708 171.147 55.2589C170.557 54.8958 167.117 51.144 166.187 50.2781L164.587 48.5744C164.937 48.0903 167.107 46.0514 168.867 43.5471L170.627 40.6796C175.607 32.459 176.577 20.9799 175.827 11.8096C175.767 11.0928 175.457 10.59 174.717 10.5062C174.217 10.4504 170.847 10.7855 170.137 10.8786C165.627 11.4745 165.677 10.3573 165.677 15.7384C165.677 17.3304 165.657 18.7083 165.527 20.1048C165.397 21.4733 165.057 22.9536 165.057 24.3128C163.377 23.2701 162.247 21.6781 161.117 20.1327C160.107 18.7269 158.947 16.4367 158.657 14.435C158.167 11.1486 158.097 11.7072 153.427 12.3403C148.976 12.9454 148.246 12.2379 148.686 15.5801C149.246 19.8906 151.107 23.4377 153.747 26.7148C154.947 28.2137 156.317 29.6567 157.837 30.9042C159.327 32.1238 160.907 33.4738 162.557 34.4979C161.657 36.2388 162.147 36.3319 160.347 38.5477C159.537 39.5438 158.307 41.1079 157.247 41.7689C156.197 41.1172 155.357 40.2328 154.547 39.339L152.157 36.4809C151.407 35.4288 150.696 34.4327 150.066 33.3434C147.376 28.7164 145.146 23.9125 143.986 18.6524L143.576 15.2543C143.406 14.705 143.326 14.8447 143.036 14.4443C140.246 14.4443 138.876 14.7702 136.686 15.366C133.696 16.176 133.406 15.7291 133.866 19.2017C134.366 22.9908 135.706 26.3982 137.076 29.8708C137.426 30.7646 137.736 31.3697 138.126 32.2356C139.176 34.5816 140.456 36.9184 141.936 39.0038L146.626 44.9622C146.926 45.3253 147.126 45.5115 147.476 45.9211C149.086 47.8483 150.957 49.4309 152.757 51.1719L155.487 53.8624C157.347 55.5941 159.327 57.2978 160.947 59.1039C165.457 64.122 168.297 67.4642 170.987 73.7391C171.387 74.6701 172.677 78.0589 172.707 79.1202L168.057 73.7111C167.137 72.7336 163.477 69.922 162.447 69.1958C157.557 65.7977 154.547 64.5688 149.286 61.9714C149.346 59.6532 151.487 55.7337 148.616 50.3899C147.606 48.5093 146.546 46.7683 145.036 45.2973C144.146 44.4222 143.266 43.4167 142.106 42.793C140.276 41.7968 138.986 44.0498 137.846 45.0832C133.936 48.6582 134.636 48.7513 136.676 50.8926C138.516 52.8384 140.706 54.7748 139.916 57.9029C138.266 57.9029 136.476 56.944 134.986 56.3854C133.356 55.7803 131.836 55.1286 130.396 54.4117C130.436 53.9369 130.776 53.2759 130.966 52.7546C134.376 43.1747 133.336 33.8462 129.596 24.4897L127.686 19.723C127.466 19.0714 127.376 18.5407 126.706 18.2986C125.716 17.9449 120.256 19.8161 119.266 20.1979C116.506 21.2685 118.026 22.3484 119.606 25.9327C120.576 28.1392 121.376 30.3829 121.966 32.7476C117.066 31.6863 115.136 28.9398 111.856 25.8769C108.446 22.7022 106.996 24.7132 102.865 26.3051C100.595 27.1803 103.026 30.3177 103.966 31.4814C104.916 32.6545 105.776 33.8462 106.866 34.8889C107.566 35.5592 108.196 36.3785 109.016 36.965C111.446 38.6966 112.626 39.6648 115.776 40.8472C117.626 41.5361 120.616 42.3089 122.916 42.4857C122.916 44.8132 121.846 49.0585 121.046 50.6226C119.986 50.3899 118.776 49.7475 117.816 49.2634C114.236 47.4665 110.696 45.4649 107.526 43.1468L105.026 41.1079C103.236 39.8231 99.5754 35.4475 98.4554 33.7158C96.2554 30.3177 98.0854 28.6978 91.8453 31.5839C87.3952 33.6413 87.4552 33.7903 88.4752 36.1736C89.0152 37.4212 89.4252 38.0915 90.0752 39.19C90.9152 40.5958 91.9553 41.862 93.0453 43.1095L96.4954 46.5914C98.1254 48.1089 99.8454 49.4868 101.685 50.7716C109.216 56.0223 115.036 58.4708 123.456 61.7572L137.036 67.1384C138.216 67.5945 139.326 68.0228 140.406 68.5069C141.396 68.9538 142.836 69.2796 143.686 69.9593C136.496 69.9593 131.926 67.0825 130.826 69.0283C130.186 70.1641 128.666 73.9904 128.166 75.2752C127.386 77.2489 129.586 77.2489 131.266 77.5934C137.736 78.9247 146.266 80.3864 152.487 77.4165C155.737 75.871 155.337 75.629 159.187 78.785L161.527 80.9636C164.127 83.3748 166.387 86.3633 167.757 89.5473C169.177 92.8523 169.707 95.2263 170.547 98.5779C170.057 98.2427 169.457 97.4048 169.037 96.93C168.067 95.8501 166.867 94.6864 165.687 93.8019C159.067 88.8304 153.897 86.9591 145.786 84.4268C139.886 82.5835 133.846 81.6059 127.706 80.4794C125.236 80.0233 126.756 81.0101 124.336 75.3311C123.516 73.4132 122.386 71.6164 121.146 70.0151L119.226 67.7342C116.786 65.3788 110.976 60.4259 107.746 59.8115C106.696 59.616 106.516 59.9139 106.106 60.3887C104.816 61.8596 103.836 63.8613 102.995 65.7791C102.455 67.0173 102.165 67.7994 103.596 68.3393C106.536 69.4565 109.306 71.3837 111.336 73.6274C112.046 74.4094 112.566 75.0983 113.196 75.9641C113.876 76.9138 114.256 77.6865 114.816 78.664C112.716 78.664 110.406 78.2078 108.376 77.8261C106.296 77.4444 104.456 76.9603 102.515 76.4483C100.425 75.899 93.5453 73.9718 91.5553 72.9943C91.5553 69.9686 91.8753 67.548 92.0253 64.7085C92.1653 62.0552 92.2553 58.8805 92.0253 56.283C91.8153 53.9369 91.1152 51.0788 90.4052 49.0678C89.9852 47.8669 89.6652 46.8614 89.2352 45.7908C88.7752 44.6363 88.3652 43.696 87.8552 42.5695C87.1852 41.1079 86.3651 39.5997 85.3551 38.3522C85.0351 37.9518 84.6851 37.4398 84.3451 37.1139C83.1851 36.0154 82.3751 36.7788 81.365 37.477C80.585 38.0263 76.2549 40.5027 75.9249 41.2848C75.5849 42.0761 76.8049 43.426 77.245 44.1522C78.115 45.5953 79.915 48.5372 80.315 50.1571C77.235 49.4868 75.0149 47.5317 72.7049 45.7628C70.7748 44.2826 70.0448 44.4688 66.9947 46.7683C66.0447 47.4852 63.5947 49.2447 63.9547 50.5481C64.2747 51.7398 67.0147 53.8718 68.1848 54.7655L71.4648 56.8044C74.4649 58.3591 78.505 60.0442 82.1951 60.0442L81.8851 64.4012C81.845 65.146 81.9451 65.9839 81.8851 66.7194C81.815 67.4921 81.735 68.0694 81.735 69.0562C80.995 68.8979 79.965 68.4511 79.285 68.1345C76.9449 67.0546 74.6849 65.7419 72.5249 64.4012C68.3148 61.7945 64.1247 58.9829 60.5446 55.6499C60.0946 55.231 59.2346 54.1697 58.6146 54.0859C57.3445 53.9276 53.5044 57.7912 52.5944 58.4895C51.6744 59.197 51.4744 59.5508 52.1244 60.7238C52.4344 61.2917 53.1644 62.232 53.6045 62.6882C54.6145 63.7496 56.0545 64.9971 57.2345 65.8536C57.9045 66.347 58.5746 66.8218 59.2646 67.3059C62.7246 69.7172 66.3247 71.9516 70.1448 73.8974C76.0449 76.8951 82.1051 79.5578 88.4452 81.7177C88.6552 81.7921 88.9252 81.8759 89.1252 81.9597L89.7252 82.2763C88.2552 82.388 80.125 84.5479 78.385 84.9482C74.5849 85.8233 71.0448 86.9684 67.2347 87.797C67.1447 87.4246 66.7847 86.7171 66.6047 86.3447C64.5747 82.1366 61.8446 78.3289 58.8646 74.6515C58.5146 74.2232 58.2545 73.9253 57.8945 73.5156C56.1945 71.5792 54.3445 69.7451 52.2844 68.1252C51.1244 67.2128 48.0643 65.1088 46.4543 65.146C45.6843 65.1647 44.4443 66.4867 43.9242 66.9708L40.7942 70.3037C40.4242 70.7599 40.0742 71.1602 40.3842 71.7747C41.5142 74.0277 46.5343 75.6104 47.8743 77.463C45.3143 78.0216 44.0942 78.2544 41.3842 77.8354C40.3342 77.6772 39.4241 77.4351 38.5241 77.1465C34.8041 75.9828 36.1541 75.3031 31.694 81.0008C31.374 81.4104 31.254 81.6711 30.974 82.0714C30.264 83.0769 30.064 83.4586 31.124 84.3244C33.044 85.8885 38.8241 87.3874 42.4042 87.4898C49.4644 87.6853 51.1044 85.7395 54.4345 85.0134C54.7345 86.0654 56.7845 88.1043 57.2445 89.9569C54.8145 90.1431 52.5644 90.8227 50.1944 91.0927C40.9142 92.1354 37.4041 91.4558 28.2039 89.0818C26.9839 88.7653 26.1339 88.1322 25.3539 89.3332C24.0038 91.4186 20.2837 95.8966 22.1038 96.93C23.3538 97.6376 26.8339 98.6244 28.2539 99.0527C30.314 99.6765 32.834 100.235 35.0941 100.533C45.0043 101.836 55.3745 99.9371 64.8247 98.0286C69.3748 97.1069 73.6949 95.7756 78.035 94.7794C80.345 94.2488 82.4551 93.7554 84.7851 93.2061C86.3351 92.843 90.3352 91.791 91.5953 91.6979C90.9952 92.4613 87.1352 93.8298 85.8151 94.165C84.5451 94.4908 83.8051 94.5933 82.2851 94.7981C80.555 95.0308 80.815 96.1573 80.825 97.5072C80.825 98.8106 80.825 100.123 80.825 101.427C80.825 104.676 81.695 104.043 84.2651 103.894C86.0751 103.791 88.0652 103.345 89.7152 102.86C93.2453 101.818 96.6254 100.3 99.4654 98.131C102.205 96.0363 104.926 93.6623 106.266 90.5062C106.906 89.0073 106.686 89.2028 109.106 89.0725C111.736 88.9421 114.526 88.9328 117.376 88.9235C122.936 88.9049 134.976 91.1765 139.406 92.3961L145.806 94.286C149.816 95.636 153.867 97.3024 157.277 99.5927C158.257 100.254 161.437 102.479 161.717 103.456C157.257 100.682 152.167 98.5406 145.986 97.3117C138.516 95.8315 132.876 95.8501 125.336 96.3249C122.056 96.5297 118.706 97.1162 115.696 97.6748C103.646 99.9185 92.4953 103.894 81.305 108.539C80.985 108.67 80.685 108.837 80.365 108.968C77.765 110.048 79.095 109.322 75.0049 107.273C70.6548 105.104 63.8447 103.028 57.4045 102.87C56.4345 102.842 56.1345 102.618 54.9745 102.777C52.5944 103.121 49.9944 103.028 47.9243 104.061C46.0343 105.011 48.4243 109.629 48.8243 111.146C49.3744 113.222 49.4044 113.055 53.5244 112.627C54.3545 112.543 55.4445 112.524 56.1645 112.468C57.2745 112.384 57.8945 112.58 58.8146 112.608C60.1046 112.645 67.0347 113.576 67.8748 114.647C66.8647 114.87 62.6546 116.881 61.0946 117.486L54.0945 120.121C51.9744 120.912 41.6542 124.618 39.3041 124.664C39.2241 121.313 36.0941 115.531 34.244 112.952C31.924 109.722 29.0639 106.808 25.6539 104.527C23.8638 103.335 22.2538 102.414 20.3037 101.362C19.0537 100.691 18.3337 101.129 17.7037 102.237L15.3136 106.259C15.1636 106.547 15.0836 106.696 14.9536 106.938C14.0836 108.484 13.9736 108.791 15.9136 109.964C17.1637 110.718 20.7038 112.282 21.3538 113.185C19.9637 113.874 18.5137 114.042 16.6837 113.902C15.9237 113.846 14.9736 113.613 14.2336 113.409C13.3436 113.167 12.8236 112.887 12.1136 113.436C11.3136 114.06 8.47349 119.758 8.9135 121.257C9.14351 122.039 9.82352 122.076 10.6935 122.225C13.1436 122.663 15.7736 123.342 18.3837 123.361C23.2138 123.389 25.8339 121.164 27.6039 121.033C28.3239 122.309 29.4339 124.701 29.4739 126.554C28.7639 126.573 27.6739 126.787 26.9639 126.833C25.9639 126.908 25.0938 126.992 24.1638 126.992C21.3138 126.982 18.8237 126.843 16.1337 126.47L8.44349 125.344C7.59347 125.214 6.84346 125.12 6.47345 125.921C6.35345 126.191 6.27345 126.601 6.15344 126.936C6.01344 127.345 5.88344 127.69 5.76343 128.025C3.35338 134.747 3.22338 133.983 9.58352 135.333C10.0135 135.426 10.3835 135.482 10.7435 135.557C11.3436 135.687 11.5336 135.622 11.8336 135.994C11.3736 136.097 10.9435 136.302 10.4735 136.479C9.91352 136.683 9.50351 136.758 8.8935 136.897C7.99348 137.112 6.62345 137.354 5.57343 137.437C1.82335 137.717 2.74337 137.679 1.66335 141.068C0.803329 143.777 0.593325 144.522 0.593325 147.334L0.593325 183.95C0.593325 185.328 0.283318 190.234 0.793329 191.025C0.963333 191.286 1.27334 191.435 1.65335 191.5L358.681 191.5C361.171 191.444 360.381 190.727 360.381 183.503V147.027C360.381 145.5 360.421 144.839 360.101 143.656C358.251 136.944 359.861 137.977 355.161 137.354C353.331 137.112 351.971 136.981 350.301 136.357L348.991 135.687L356.071 134.281C357.761 133.592 355.691 129.198 355.331 128.183C353.601 123.314 354.381 125.605 345.541 126.517C344.691 126.601 343.721 126.638 342.831 126.759C341.631 126.927 335.71 126.964 334.22 126.759C333.59 126.666 332.05 126.526 331.5 126.526C331.85 125.13 332.06 123.584 332.75 122.309C332.98 121.871 333.25 121.527 333.38 121.005C334.21 121.071 334.79 121.471 335.43 121.713C340.421 123.622 342.241 123.556 347.541 122.709C348.381 122.579 351.681 122.234 352.021 121.499C352.741 119.925 350.161 114.796 349.111 113.632C347.911 112.291 346.291 114.172 342.131 113.883C341.251 113.818 340.571 113.474 339.781 113.306C340.251 111.686 344.921 110.318 346.231 109.135C346.641 108.763 346.821 108.242 346.531 107.618C346.371 107.264 346.001 106.715 345.771 106.286L343.491 102.162C342.741 100.989 342.121 100.719 340.831 101.343C336 103.68 331.89 106.389 328.62 110.467C325.34 114.544 323.51 118.091 322.18 123.072C322.01 123.715 321.82 124.217 321.68 124.785L317.83 123.864C316.51 123.463 315.4 123.119 314.08 122.7C310.29 121.499 297.43 116.602 293.87 114.917C293.33 114.656 293.41 114.87 293.26 114.321C293.68 114.284 294.83 113.883 295.31 113.753C300.07 112.459 305.13 112.161 310.17 112.831C311.29 112.98 311.74 112.673 311.97 111.966L313.26 108.083C314.52 104.257 314.05 103.642 308.88 102.972C307.08 102.739 305.5 102.693 303.71 102.833C299.98 103.112 297.86 103.382 294.16 104.266C292.79 104.592 291.359 105.086 290.069 105.542C287.379 106.501 285.199 107.664 282.859 109.154C281.759 109.861 280.999 108.977 279.019 108.232C278.279 107.953 277.859 107.73 277.079 107.422C264.589 102.6 254.679 99.1923 240.918 97.0418C238.488 96.66 236.038 96.5576 233.538 96.2132C231.508 95.9339 227.468 95.9804 225.318 95.9991C224.438 96.0084 223.868 96.1201 222.818 96.148C218.118 96.2504 210.928 97.9821 206.918 99.5089C204.998 100.235 203.108 101.166 201.328 102.153C200.788 102.451 200.098 102.991 199.558 103.121C200.118 102.144 200.888 101.753 201.708 101.054C204.448 98.6803 209.368 96.3901 212.918 95.0681C220.108 92.3868 229.998 90.1152 237.678 89.3425C241.508 88.9608 248.189 88.5977 252.289 89.0632C252.759 89.119 253.819 89.3052 254.359 89.3145C254.539 91.3348 257.559 94.6957 259.159 96.1852C262.259 99.0713 267.609 102.004 272.219 103.065C273.429 103.345 274.269 103.521 275.569 103.726C276.139 103.819 278.629 104.117 279.279 103.94C280.419 103.633 280.119 102.246 280.119 100.943C280.119 99.6392 280.119 98.3265 280.119 97.0138C280.139 93.7554 279.489 95.3846 275.139 94.0905C273.189 93.504 270.969 92.7033 269.339 91.7537L269.469 91.6327C270.379 91.7444 271.669 92.1634 272.629 92.3496C273.819 92.5823 274.839 92.843 276.019 93.113C277.099 93.3644 278.209 93.625 279.389 93.895L289.409 96.3435C296.29 98.1589 303.07 99.5461 310.21 100.375C319.54 101.464 327.19 101.008 335.82 98.0007C336.51 97.7586 338.261 97.2186 338.841 96.8835C339.951 96.2411 339.261 94.9005 338.821 94.0905C338.08 92.7499 336.56 90.739 335.59 89.2494C334.88 88.1415 333.76 88.7187 332.63 89.0725C330.11 89.8638 325.33 91.1207 322.56 91.3255C318.13 91.6513 315.63 91.6141 311.02 90.8972C309.3 90.6272 305.11 89.8824 303.68 89.8824C304.95 87.4246 304.78 87.5457 306.65 84.9389C309.68 85.5999 311.01 87.4991 318.52 87.4153C322.1 87.3781 327 86.0561 329.83 84.2779C331.41 83.291 329.93 81.7456 328.53 79.9767C328 79.3064 327.53 78.7478 326.99 78.0682C324.84 75.3869 325.88 76.1969 322.54 77.0627C321.53 77.3234 320.67 77.5841 319.54 77.761C318.41 77.9378 317.46 78.003 316.16 77.9751C314.94 77.9472 314.05 77.612 313.04 77.3886C313.81 76.3179 316.82 74.5118 318.07 73.7856C318.92 73.2922 320 72.6312 320.49 71.8119C321.04 70.8809 320.19 70.1268 319.25 69.14C318.43 68.2835 315.66 65.1647 314.59 65.0809C313.79 65.0157 312.03 65.9467 311.45 66.3098C310.98 66.6077 310.62 66.8032 310.14 67.1291C309.57 67.5108 309.35 67.7156 308.86 68.1159C303.82 72.296 300.06 76.5321 296.65 82.0342L293.68 87.6946L271.199 82.1739L278.829 79.3902C279.699 79.0643 280.449 78.7013 281.329 78.3754L290.789 73.8042C294.8 71.5885 295.9 70.8158 299.43 68.6279C300.17 68.1625 300.82 67.7528 301.54 67.2501C302.27 66.738 302.89 66.3656 303.61 65.835C304.95 64.8574 311.13 60.3421 308.43 58.415L305.67 56.041C305.07 55.4731 303.22 53.909 302.45 53.9742C301.95 54.0114 301.65 54.2907 301.38 54.5979C297.51 59.0015 289.389 63.8799 283.899 66.6729C282.289 67.4921 280.749 68.1625 279.159 68.9445V66.9429L279.189 67.008Z" fill="#D7B46A" fill-opacity="0.2"/>
</g>
<defs>
<clipPath id="clip0_4_2">
<rect width="360" height="143" fill="white" transform="translate(0.5 0.500008)"/>
</clipPath>
</defs>
</svg>
