<svg width="305" height="305" viewBox="0 0 305 305" fill="none" xmlns="http://www.w3.org/2000/svg">
<g clip-path="url(#clip0_0_3)">
<path d="M302.89 2H2V302.89H302.89V2Z" stroke="#8B8B8B" stroke-width="4" stroke-miterlimit="10"/>
<path d="M61.73 78.86H86.87V87.89H71.38V104.27H82.53V113.3H71.38V131.98H86.87V141.36H61.73V78.86Z" fill="#8B8B8B"/>
<path d="M99.62 78.86L105.37 115.87C105.9 119.23 106.43 123.48 106.43 128.88V130.03C106.61 123.66 107.05 118.96 107.49 115.86L113.07 78.85H122.54L111.47 141.35H101.38L90.22 78.85H99.6L99.62 78.86Z" fill="#8B8B8B"/>
<path d="M128.31 78.86H153.45V87.89H137.96V104.27H149.11V113.3H137.96V131.98H153.45V141.36H128.31V78.86Z" fill="#8B8B8B"/>
<path d="M170.45 141.36H160.8V78.86H174.97C185.42 78.86 190.02 84.08 190.02 96.92C190.02 104.36 188.43 109.14 183.91 112.32L190.99 141.36H180.99L175.06 115.07H170.46V141.36H170.45ZM170.45 106.04H174.26C178.95 106.04 180.19 103.47 180.19 96.57C180.19 89.67 178.6 87.89 173.9 87.89H170.45V106.04Z" fill="#8B8B8B"/>
<path d="M201.52 78.86L207.81 103.83H208.43L214.36 78.86H224.19L212.95 115.42V141.36H203.3V116.57L191.79 78.86H201.53H201.52Z" fill="#8B8B8B"/>
<path d="M71.04 157.65L75.29 194.66C75.64 197.76 75.91 200.95 75.91 204.49V205.73C76.26 199.27 76.44 195.19 76.71 193.42L81.49 157.65H89.72L94.85 194.66C95.29 197.76 95.47 201.48 95.47 205.73C95.74 200.51 95.91 196.43 96.27 193.42L100.25 157.65H109.37L99.63 220.15H91.57L86.26 183.85C85.91 181.37 85.64 177.65 85.64 172.78C85.29 179.6 85.02 183.67 84.84 185.09L79.71 220.15H71.65L61.82 157.65H71.03H71.04Z" fill="#8B8B8B"/>
<path d="M124.51 157.65V183.15H134.16V157.65H143.81V220.15H134.16V192.17H124.51V220.15H114.95V157.65H124.51Z" fill="#8B8B8B"/>
<path d="M153.73 157.65H178.87V166.68H163.38V183.06H174.53V192.09H163.38V210.77H178.87V220.15H153.73V157.65Z" fill="#8B8B8B"/>
<path d="M195.87 220.15H186.22V157.65H200.39C210.84 157.65 215.44 162.87 215.44 175.71C215.44 183.15 213.85 187.93 209.33 191.11L216.41 220.15H206.41L200.48 193.86H195.88V220.15H195.87ZM195.87 184.83H199.68C204.37 184.83 205.61 182.26 205.61 175.36C205.61 168.46 204.02 166.68 199.32 166.68H195.87V184.83Z" fill="#8B8B8B"/>
<path d="M223.23 157.65H248.37V166.68H232.88V183.06H244.04V192.09H232.88V210.77H248.37V220.15H223.23V157.65Z" fill="#8B8B8B"/>
<path d="M232.86 78.95H241.36V81.53H238.48V96.8H235.72V81.53H232.86V78.95Z" fill="#8B8B8B"/>
<path d="M242.59 78.95H246.26L248.05 88.84C248.2 89.65 248.28 90.56 248.28 91.52C248.28 90.61 248.38 89.72 248.53 88.87L250.25 78.96H253.97V96.81H251.39V85.53C251.39 85.02 251.44 83.99 251.59 82.42C251.39 83.63 251.26 84.47 251.16 84.95L248.91 96.81H247.54L245.39 84.95C245.14 83.51 245.01 82.65 244.96 82.42C245.09 83.76 245.14 84.8 245.14 85.53V96.81H242.59V78.96V78.95Z" fill="#8B8B8B"/>
</g>
<defs>
<clipPath id="clip0_0_3">
<rect width="304.89" height="304.89" fill="white"/>
</clipPath>
</defs>
</svg>
